<svg height="666.54559" viewBox="0 0 567 666.54559" width="567" xmlns="http://www.w3.org/2000/svg"><path d="m528.756 115.473-54.26-16.405-3.337 74.2 57.103 17.212z" fill="#f5f5f5"/><path d="m146.808 0v75.501l324.351 97.767 3.337-74.2z" fill="#f5f5f5"/><path d="m528.756 115.473-54.26-16.405-3.337 74.2 57.103 17.212z" opacity=".1"/><path d="m528.756 257.593-54.26-16.405-3.337 74.2 57.103 17.213z" fill="#3ad29f"/><path d="m146.808 142.12v75.501l324.351 97.767 3.337-74.2z" fill="#3ad29f"/><path d="m528.756 257.593-54.26-16.405-3.337 74.2 57.103 17.213z" opacity=".1"/><path d="m488.291 283.747 8.883 13.323 17.765-22.206" fill="none" stroke="#fff" stroke-linecap="round" stroke-miterlimit="10" stroke-width="7"/><g style="opacity:.4;fill:none;stroke:#fff;stroke-linecap:round;stroke-miterlimit:10;stroke-width:7"><path d="m488.7846 128.30287 17.76501 31.08877"/><path d="m510.99086 132.74413-22.20626 22.20626"/></g><path d="m528.756 390.83-54.26-16.404-3.337 74.2 57.103 17.212z" fill="#f5f5f5"/><path d="m146.808 275.358v75.501l324.351 97.767 3.337-74.2z" fill="#f5f5f5"/><path d="m528.756 390.83-54.26-16.404-3.337 74.2 57.103 17.212z" opacity=".1"/><g style="opacity:.4;fill:none;stroke:#fff;stroke-linecap:round;stroke-miterlimit:10;stroke-width:7"><path d="m488.7846 403.66057 17.76501 31.08878"/><path d="m510.99086 408.10183-22.20626 22.20626"/></g><ellipse cx="371.09138" cy="243.77546" opacity=".3" rx="11.10313" ry="22.20627"/><ellipse cx="371.09138" cy="243.77546" fill="#6c63ff" opacity=".1" rx="93.26632" ry="186.53264"/><ellipse cx="371.09138" cy="243.77546" fill="#fff" opacity=".1" rx="51.07441" ry="102.14883"/><g fill="#47e6b1" opacity=".5"><path d="m3.45431 110.29112h1.48042v8.38903h-1.48042z"/><path d="m319.95431 227.01833h1.48042v8.38903h-1.48042z" transform="matrix(0 1 -1 0 235.40736 -206.20888)"/></g><g fill="#47e6b1" opacity=".5"><path d="m528.45431 519.29112h1.48042v8.38903h-1.48042z"/><path d="m844.95431 636.01833h1.48042v8.38903h-1.48042z" transform="matrix(0 1 -1 0 1169.40736 -322.20888)"/></g><g fill="#47e6b1" opacity=".5"><path d="m491.99217 341.23629h1.48042v8.38903h-1.48042z"/><path d="m808.49217 457.9635h1.48042v8.38903h-1.48042z" transform="matrix(0 1 -1 0 954.89039 -463.80157)"/></g><g fill="#47e6b1" opacity=".5"><path d="m428.82768 511.97781h1.48042v8.38903h-1.48042z"/><path d="m745.32768 628.70501h1.48042v8.38903h-1.48042z" transform="matrix(0 1 -1 0 1062.46741 -229.89556)"/></g><g fill="#47e6b1" opacity=".5"><path d="m384.41514 619.06136h1.48042v8.38903h-1.48042z"/><path d="m700.91514 735.78856h1.48042v8.38903h-1.48042z" transform="matrix(0 1 -1 0 1125.13843 -78.39948)"/></g><g fill="#47e6b1" opacity=".5"><path d="m66.6188 240.07441h1.48042v8.38903h-1.48042z"/><path d="m383.1188 356.80162h1.48042v8.38903h-1.48042z" transform="matrix(0 1 -1 0 428.35514 -139.59008)"/></g><path d="m406.16017 226.18211a1.8133 1.8133 0 0 1 -1.01037-2.19152.87236.87236 0 0 0 .03943-.20111.90926.90926 0 0 0 -1.63362-.60262.87141.87141 0 0 0 -.10062.17854 1.81331 1.81331 0 0 1 -2.19153 1.01038.8712.8712 0 0 0 -.20111-.03943.90925.90925 0 0 0 -.60262 1.63361.87157.87157 0 0 0 .17854.10061 1.81331 1.81331 0 0 1 1.01037 2.19153.87226.87226 0 0 0 -.03943.20111.90926.90926 0 0 0 1.63362.60263.87167.87167 0 0 0 .10062-.17854 1.81331 1.81331 0 0 1 2.19153-1.01038.87173.87173 0 0 0 .20111.03943.90926.90926 0 0 0 .60263-1.63362.87161.87161 0 0 0 -.17855-.10062z" fill="#4d8af0" opacity=".5" transform="translate(-316.5 -116.7272)"/><path d="m739.352 151.98894a1.81332 1.81332 0 0 1 -1.01038-2.19153.87173.87173 0 0 0 .03943-.20111.90926.90926 0 0 0 -1.63362-.60263.8718.8718 0 0 0 -.10062.17853 1.81331 1.81331 0 0 1 -2.19152 1.01038.87183.87183 0 0 0 -.20111-.03943.90926.90926 0 0 0 -.60262 1.63362.87141.87141 0 0 0 .17854.10062 1.81331 1.81331 0 0 1 1.01038 2.19153.8711.8711 0 0 0 -.03943.20111.90926.90926 0 0 0 1.63361.60262.87184.87184 0 0 0 .10061-.17854 1.81332 1.81332 0 0 1 2.19153-1.01038.87131.87131 0 0 0 .20111.03943.90926.90926 0 0 0 .60262-1.63361.87167.87167 0 0 0 -.17853-.10061z" fill="#4d8af0" opacity=".5" transform="translate(-316.5 -116.7272)"/><path d="m329.76972 415.99677a1.81331 1.81331 0 0 1 -1.01038-2.19153.8712.8712 0 0 0 .03943-.20111.90925.90925 0 0 0 -1.63361-.60262.87115.87115 0 0 0 -.10062.17854 1.81332 1.81332 0 0 1 -2.19153 1.01038.87175.87175 0 0 0 -.20111-.03944.90926.90926 0 0 0 -.60263 1.63362.87115.87115 0 0 0 .17854.10062 1.81331 1.81331 0 0 1 1.01037 2.19153.87173.87173 0 0 0 -.03943.20111.90926.90926 0 0 0 1.63362.60263.87115.87115 0 0 0 .10062-.17854 1.81331 1.81331 0 0 1 2.19153-1.01037.87163.87163 0 0 0 .20111.03943.90926.90926 0 0 0 .60262-1.63362.87115.87115 0 0 0 -.17853-.10063z" fill="#4d8af0" opacity=".5" transform="translate(-316.5 -116.7272)"/><path d="m343.09348 602.52941a1.81332 1.81332 0 0 1 -1.01038-2.19153.8712.8712 0 0 0 .03943-.20111.90926.90926 0 0 0 -1.63361-.60263.87134.87134 0 0 0 -.10062.17853 1.81332 1.81332 0 0 1 -2.19153 1.01038.87173.87173 0 0 0 -.20111-.03943.90926.90926 0 0 0 -.60263 1.63362.87115.87115 0 0 0 .17854.10062 1.81331 1.81331 0 0 1 1.01037 2.19153.87163.87163 0 0 0 -.03943.20111.90926.90926 0 0 0 1.63362.60262.87141.87141 0 0 0 .10062-.17854 1.81331 1.81331 0 0 1 2.19153-1.01038.8711.8711 0 0 0 .20111.03943.90925.90925 0 0 0 .60261-1.63363.87115.87115 0 0 0 -.17852-.10059z" fill="#4d8af0" opacity=".5" transform="translate(-316.5 -116.7272)"/><circle cx="248.71018" cy="134.47128" fill="#f55f44" opacity=".5" r="2.96084"/><circle cx="328.65274" cy="520.86031" fill="#4d8af0" opacity=".5" r="2.96084"/><circle cx="510.74413" cy="214.41384" fill="#4d8af0" opacity=".5" r="2.96084"/><circle cx="564.03916" cy="347.65144" fill="#47e6b1" opacity=".5" r="2.96084"/><circle cx="365.66319" cy="11.59661" fill="#f55f44" opacity=".5" r="2.96084"/><path d="m531.96787 255.18094h22.24232v28.59727h-22.24232z" fill="#6c63ff" transform="matrix(-.99924898 -.038749 .038749 -.99924898 758.82811 443.07373)"/><g transform="translate(-316.5 -116.7272)"><path d="m632.78991 354.83947s30.779-14.70577 30.28646-2.00541-31.02521 21.05594-31.02521 21.05594z" fill="#ffb9b9"/><path d="m615.90334 462.3s14.52107 35.54159 19.88626 61.18854 13.53608 60.94229 3.02582 85.97362-40.39191 98.59935-40.69972 106.53707 2.55946 15.99856-3.79071 15.75231-40.90677-11.12587-42.30963-15.95007 11.79-17.03205 11.79-17.03205l32.57732-102.08224-33.98948-66.50527-24.51648 99.215-4.80184 123.82843s-23.56691-7.27361-26.98824-1.04656c0 0-10.55875-14.71883-11.9-21.13057s4.98653-128.59106 4.98653-128.59106-21.63236-139.16288-4.16937-138.4857 85.86352-41.18845 120.89954-1.67145z" fill="#6c63ff"/><path d="m594.57123 725.40133s16.10862 35.60315 17.63461 37.25225 12.02317 17.95548 4.08545 17.64767-26.68044-8.98427-40.47584-22.23868-31.98406-36.21877-30.335-37.74475 12.9466-5.85768 12.9466-5.85768z" fill="#575a89"/><path d="m530.20761 745.16446s.97192 15.937 3.90076 22.41031 2.55947 15.99856-5.37825 15.69075-28.45267-4.28321-28.45267-4.28321-1.21817-9.58682.43093-11.1128 8.67647-18.74272 5.68607-23.62848 23.81316.92343 23.81316.92343z" fill="#575a89"/><path d="m518.46439 227.98143s-16.922 26.37262-23.51842 32.47655 11.9616 19.543 11.9616 19.543l33.2153 4.46789s-.41786-30.2249 1.29281-33.33843-22.95129-23.14901-22.95129-23.14901z" fill="#ffb9b9"/><path d="m547.33492 262.48953s-6.84267 12.4541-13.19285 12.20785-39.1961-14.2394-40.599-19.06359-10.87963 34.55659-10.87963 34.55659l80.37156 141.44068 19.60459-13.54915-9.49913-83.04479-7.80153-44.8206z" fill="#6c63ff"/><path d="m490.57861 389.07305c3.206 6.70666 5.20835 13.70048 4.9307 20.86031-.01231.31753-.02462.635-.05282.95188-.76057 14.69328-6.17341 31.68645-8.11534 44.04442-1.40908 8.86485-1.00808 15.33552 4.1797 16.85636 12.57723 3.66758-1.83379 6.28861 46.826 22.48493s57.15159 2.21623 57.27471-.95885-6.89116-27.29606-5.24206-28.822 23.07442 19.97395 29.54772 17.04511.73874-19.05052.73874-19.05052-14.58264-33.954-14.27483-41.89177-22.08942-45.37466-22.08942-45.37466l-15.23371-99.16651s-5.85768-12.9466-13.73384-14.842-14.411 2.621-14.411 2.621l13.17984 29.12992 13.90546 51.417-2.32629 18.989s-16.17018-34.01561-26.7905-47.14689-33.26379-44.21806-33.26379-44.21806-5.28646-17.83738-1.2957-23.1679c3.99136-5.34633-16.64671-6.14663-25.4463 15.77117-4.66388 11.61641-12.23588 28.93925-16.97926 45.06801-4.22682 14.28851-6.22343 27.646-2.03588 35.28111 6.40026 11.66389 22.50006 26.99508 30.70787 44.11894z" fill="#575a89"/><path d="m459.87074 344.95412c6.40029 11.66388 22.50006 26.99507 30.70787 44.11893 2.14378-7.72348 4.75909-15.71476 4.75909-15.71476s10.03082-53.66868-19.64-67.53871a19.85762 19.85762 0 0 0 -13.79106 3.85343c-4.22684 14.28851-6.22345 27.64599-2.0359 35.28111z" opacity=".1"/><path d="m577.6568 341.572 25.15446 7.33516 34.926 1.35437 3.593 30.348-57.39783 4.13394s-14.33643-40.30421-6.27563-43.17147z" fill="#575a89"/><path d="m536.639 443.61156s33.65163 5.58313 25.971 15.70981-37.49194-.51979-37.49194-.51979z" fill="#ffb9b9"/><path d="m495.45649 410.88524c-.76057 14.69328-6.17341 31.68645-8.11534 44.04442 10.72016 10.14608 20.91438 19.09523 24.75621 19.24421 7.93772.30781 20.69963-.78724 25.4007.985s7.4583-28.32954 7.4583-28.32954-2.80572-9.64839-15.32139-14.90352c-8.4478-3.55521-24.64097-13.19803-34.17848-21.04057z" opacity=".1"/><path d="m476.06706 296.29431s-26.86513-4.22164-25.41378 40.35271-2.83185 73.027 7.97315 81.39568 45.90258 46.29809 53.8403 46.6059 20.69964-.78723 25.40071.985 7.45829-28.32955 7.45829-28.32955-2.80572-9.64838-15.32138-14.90351-42.00182-23.88779-41.75558-30.238 7.4583-28.32954 7.4583-28.32954 10.03083-53.66866-19.64001-67.53869z" fill="#575a89"/></g><circle cx="225.65442" cy="115.35274" fill="#ffb9b9" r="34.95222"/><path d="m565.68863 181.98324a6.749 6.749 0 0 0 2.93882 1.47479 2.09716 2.09716 0 0 0 2.43029-1.68345c.79968 1.65841 1.70192 3.42592 3.33461 4.27688s4.15732.13741 4.39266-1.68863a7.706 7.706 0 0 0 1.77364 3.74391c1.013.96585 2.85 1.20962 3.73439.12483-.715 3.90745-.27369 7.92586-.49823 11.89183s-1.2821 8.1705-4.27847 10.7784c-4.36987 3.80334-10.94108 2.86467-16.68929 2.1441a5.06575 5.06575 0 0 0 -2.61539.14308c-2.15231.917-2.05467 3.9131-2.08369 6.25242a17.37277 17.37277 0 0 1 -15.21221 16.4975 8.70857 8.70857 0 0 1 -6.47244-1.57965c-1.63206-1.38335-2.46572-3.638-4.33585-4.67723-3.04207-1.6904-6.73153.77486-8.95568 3.45158s-4.4162 5.96933-7.86172 6.45931c-4.55691.648-8.02766-3.996-9.73047-8.27217a48.223 48.223 0 0 1 .9584-37.46974c9.51491-20.74111 42.01818-24.02171 59.17063-11.86776z" fill="#2f2e41" transform="translate(-316.5 -116.7272)"/></svg>