<svg width="201" height="241" viewBox="0 0 201 241" fill="none" xmlns="http://www.w3.org/2000/svg">
<g opacity="0.3">
<path opacity="0.3" d="M140.38 50.06C134.913 50.0547 129.671 47.8805 125.805 44.0147C121.94 40.1488 119.765 34.9071 119.76 29.44V0.809999H27.6301C24.0954 0.808686 20.5949 1.50377 17.3289 2.85553C14.0628 4.2073 11.0951 6.18925 8.59521 8.6882C6.09533 11.1872 4.11226 14.1542 2.75928 17.4197C1.4063 20.6852 0.709961 24.1853 0.709961 27.72V189.94C0.709961 193.475 1.4063 196.975 2.75928 200.24C4.11226 203.506 6.09533 206.473 8.59521 208.972C11.0951 211.471 14.0628 213.453 17.3289 214.804C20.5949 216.156 24.0954 216.851 27.6301 216.85H138.23C145.367 216.85 152.212 214.015 157.258 208.968C162.305 203.922 165.14 197.077 165.14 189.94V50.06H140.38Z" fill="#08AD6C"/>
</g>
<path d="M165.14 50.06H140.38C134.913 50.0547 129.671 47.8805 125.805 44.0147C121.94 40.1488 119.765 34.9071 119.76 29.44V0.809998L165.14 50.06Z" fill="#08AD6C"/>
<path d="M184.65 171.42H59.6101C50.7404 171.42 43.55 178.61 43.55 187.48V224.76C43.55 233.63 50.7404 240.82 59.6101 240.82H184.65C193.52 240.82 200.71 233.63 200.71 224.76V187.48C200.71 178.61 193.52 171.42 184.65 171.42Z" fill="#08AD6C"/>
<path d="M81.21 213.93V221.18H73.71V213.93H81.21Z" fill="white"/>
<path d="M108.12 193.95C110.648 196.001 112.367 198.881 112.97 202.08H105.3C104.785 200.754 103.878 199.617 102.7 198.82C101.463 198.009 100.009 197.594 98.53 197.63C97.5535 197.599 96.5829 197.793 95.6934 198.197C94.8038 198.601 94.0193 199.204 93.4001 199.96C92.1308 201.784 91.4502 203.953 91.4502 206.175C91.4502 208.397 92.1308 210.566 93.4001 212.39C94.0223 213.141 94.8078 213.74 95.697 214.14C96.5862 214.54 97.5554 214.732 98.53 214.7C100.009 214.736 101.463 214.321 102.7 213.51C103.871 212.723 104.778 211.601 105.3 210.29H112.97C112.353 213.478 110.637 216.348 108.12 218.4C105.412 220.478 102.061 221.54 98.6501 221.4C95.9696 221.459 93.3228 220.792 90.99 219.47C88.801 218.204 87.0288 216.328 85.8901 214.07C84.7051 211.6 84.0898 208.895 84.0898 206.155C84.0898 203.415 84.7051 200.71 85.8901 198.24C87.0288 195.982 88.801 194.106 90.99 192.84C93.3228 191.518 95.9696 190.852 98.6501 190.91C102.065 190.786 105.416 191.861 108.12 193.95Z" fill="white"/>
<path d="M137.34 217.11C136.481 218.488 135.245 219.591 133.78 220.29C132.002 221.124 130.053 221.528 128.09 221.47C125.129 221.59 122.211 220.729 119.79 219.02C118.719 218.218 117.843 217.184 117.227 215.997C116.61 214.809 116.269 213.498 116.23 212.16H123.94C123.991 213.166 124.419 214.116 125.14 214.82C125.857 215.49 126.809 215.849 127.79 215.82C128.594 215.861 129.383 215.589 129.99 215.06C130.257 214.801 130.466 214.49 130.606 214.146C130.745 213.801 130.812 213.431 130.8 213.06C130.81 212.709 130.748 212.36 130.619 212.033C130.49 211.707 130.297 211.41 130.05 211.16C129.527 210.624 128.901 210.199 128.21 209.91C127.48 209.58 126.46 209.2 125.21 208.74C123.626 208.218 122.079 207.59 120.58 206.86C119.345 206.221 118.284 205.291 117.49 204.15C116.629 202.749 116.179 201.135 116.189 199.491C116.2 197.848 116.671 196.24 117.55 194.85C118.49 193.515 119.791 192.474 121.3 191.85C123.039 191.144 124.904 190.803 126.78 190.85C129.621 190.698 132.427 191.536 134.72 193.22C135.685 194.004 136.478 194.978 137.047 196.083C137.617 197.188 137.952 198.399 138.03 199.64H130.2C130.11 198.759 129.73 197.932 129.12 197.29C128.807 196.995 128.437 196.766 128.033 196.616C127.63 196.467 127.2 196.4 126.77 196.42C126.043 196.397 125.332 196.638 124.77 197.1C124.496 197.352 124.283 197.663 124.146 198.01C124.009 198.356 123.952 198.729 123.98 199.1C123.967 199.769 124.219 200.416 124.68 200.9C125.177 201.42 125.777 201.832 126.44 202.11C127.15 202.42 128.16 202.82 129.44 203.3C131.053 203.82 132.624 204.462 134.14 205.22C135.387 205.888 136.46 206.84 137.27 208C138.205 209.398 138.668 211.06 138.59 212.74C138.588 214.285 138.155 215.798 137.34 217.11Z" fill="white"/>
<path d="M148.16 191.24L155.48 213.77L162.81 191.24H170.56L160.14 221.18H150.78L140.41 191.24H148.16Z" fill="white"/>
<path d="M119.6 151.64H46.25C39.9 151.64 34.74 145.32 34.74 137.54V84.32C34.74 76.55 39.9 70.23 46.25 70.23H119.6C125.95 70.23 131.11 76.55 131.11 84.32V137.51C131.11 145.29 125.95 151.64 119.6 151.64ZM46.25 77.47C43.15 77.47 40.6301 80.55 40.6301 84.35V137.54C40.6301 141.34 43.15 144.43 46.25 144.43H119.6C122.7 144.43 125.23 141.34 125.23 137.54V84.32C125.23 80.52 122.7 77.44 119.6 77.44L46.25 77.47Z" fill="#08AD6C"/>
<path d="M128.17 119.58H37.6799V126.79H128.17V119.58Z" fill="#08AD6C"/>
<path d="M128.17 94.85H37.6799V102.06H128.17V94.85Z" fill="#08AD6C"/>
<path d="M105 73.83H97.79V148H105V73.83Z" fill="#08AD6C"/>
<path d="M68.0601 73.83H60.8501V148H68.0601V73.83Z" fill="#08AD6C"/>
</svg>
