<svg width="201" height="241" viewBox="0 0 201 241" fill="none" xmlns="http://www.w3.org/2000/svg">
<g opacity="0.3">
<path opacity="0.3" d="M139.96 49.8C134.49 49.7948 129.246 47.6196 125.378 43.7518C121.51 39.8841 119.335 34.6398 119.33 29.17V0.550051H27.2C23.6657 0.548737 20.1659 1.24382 16.9004 2.59571C13.6349 3.94759 10.668 5.92975 8.16895 8.42883C5.66986 10.9279 3.68758 13.8949 2.3357 17.1604C0.983807 20.4259 0.288727 23.9257 0.290041 27.46V189.64C0.290041 193.174 0.986027 196.673 2.33838 199.938C3.69073 203.203 5.67305 206.169 8.17188 208.668C10.6707 211.167 13.6372 213.149 16.9021 214.502C20.167 215.854 23.6661 216.55 27.2 216.55H137.8C141.334 216.55 144.833 215.854 148.098 214.502C151.363 213.149 154.33 211.167 156.828 208.668C159.327 206.169 161.309 203.203 162.662 199.938C164.014 196.673 164.71 193.174 164.71 189.64V49.8H139.96Z" fill="#FF9908"/>
</g>
<path d="M164.71 49.8H139.96C134.49 49.7948 129.246 47.6196 125.378 43.7518C121.51 39.8841 119.335 34.6398 119.33 29.17V0.550049L164.71 49.8Z" fill="#FF9908"/>
<path d="M184.23 171.15H59.1899C50.3202 171.15 43.1299 178.34 43.1299 187.21V224.49C43.1299 233.36 50.3202 240.55 59.1899 240.55H184.23C193.1 240.55 200.29 233.36 200.29 224.49V187.21C200.29 178.34 193.1 171.15 184.23 171.15Z" fill="#FF9908"/>
<path d="M90.74 213.93V221.2H83.22V213.93H90.74Z" fill="white"/>
<path d="M117.92 193.64C120.344 195.458 121.974 198.141 122.47 201.13H114.77C114.268 200.059 113.457 199.164 112.44 198.56C111.294 197.881 109.982 197.534 108.65 197.56C107.615 197.517 106.582 197.703 105.626 198.104C104.671 198.505 103.815 199.111 103.12 199.88C101.657 201.631 100.914 203.872 101.04 206.15C101.04 209.02 101.77 211.21 103.23 212.74C104.049 213.539 105.027 214.156 106.101 214.553C107.174 214.949 108.318 215.115 109.46 215.04C111.12 215.087 112.746 214.569 114.074 213.572C115.402 212.575 116.352 211.157 116.77 209.55H107.59V204.32H122.86V211.51C122.273 213.301 121.346 214.961 120.13 216.4C118.823 217.954 117.192 219.204 115.35 220.06C113.266 221.028 110.988 221.507 108.69 221.46C105.917 221.525 103.175 220.86 100.74 219.53C98.5013 218.271 96.6772 216.388 95.49 214.11C94.2708 211.635 93.6367 208.914 93.6367 206.155C93.6367 203.396 94.2708 200.675 95.49 198.2C96.6699 195.924 98.4873 194.04 100.72 192.78C103.132 191.447 105.855 190.778 108.61 190.84C111.938 190.714 115.213 191.699 117.92 193.64Z" fill="white"/>
<path d="M134.21 191.13V221.2H126.94V191.13H134.21Z" fill="white"/>
<path d="M158.84 191.13V196.91H146.5V203.5H156.03V209.03H146.5V221.2H139.23V191.13H158.84Z" fill="white"/>
<path d="M77.9199 154.99C69.7795 154.998 61.8197 152.591 55.0473 148.075C48.275 143.558 42.9944 137.134 39.8738 129.615C36.7531 122.097 35.9326 113.822 37.5158 105.837C39.0991 97.8516 43.0152 90.5157 48.7685 84.7568C54.5219 78.9978 61.854 75.0747 69.8374 73.4837C77.8208 71.8927 86.0966 72.7053 93.6181 75.8186C101.14 78.932 107.569 84.2062 112.092 90.9742C116.616 97.7421 119.03 105.7 119.03 113.84C119.017 124.743 114.683 135.196 106.977 142.909C99.2714 150.622 88.8226 154.966 77.9199 154.99ZM77.9199 79.9001C71.2072 79.9001 64.6453 81.8907 59.0639 85.62C53.4825 89.3494 49.1323 94.65 46.5635 100.852C43.9946 107.053 43.3225 113.878 44.6321 120.461C45.9416 127.045 49.1743 133.093 53.9209 137.839C58.6675 142.586 64.7148 145.818 71.2986 147.128C77.8823 148.437 84.7065 147.765 90.9082 145.197C97.1099 142.628 102.411 138.277 106.14 132.696C109.869 127.115 111.86 120.553 111.86 113.84C111.844 104.843 108.263 96.2199 101.902 89.8583C95.54 83.4968 86.9165 79.9159 77.9199 79.9001Z" fill="#FF9908"/>
<path d="M77.9199 136.89C73.2238 136.892 68.5999 135.736 64.4573 133.524C60.3146 131.312 56.7811 128.113 54.1699 124.21L60.1699 120.21C62.1215 123.131 64.7632 125.525 67.8611 127.181C70.9589 128.836 74.4173 129.703 77.9299 129.703C81.4425 129.703 84.9012 128.836 87.999 127.181C91.0969 125.525 93.7384 123.131 95.6899 120.21L101.69 124.21C99.0788 128.118 95.5428 131.32 91.396 133.532C87.2491 135.745 82.6199 136.898 77.9199 136.89Z" fill="#FF9908"/>
<path d="M66.51 107.52C69.1555 107.52 71.3 105.375 71.3 102.73C71.3 100.085 69.1555 97.9399 66.51 97.9399C63.8646 97.9399 61.72 100.085 61.72 102.73C61.72 105.375 63.8646 107.52 66.51 107.52Z" fill="#FF9908"/>
<path d="M89.3301 107.52C91.9755 107.52 94.1201 105.375 94.1201 102.73C94.1201 100.085 91.9755 97.9399 89.3301 97.9399C86.6846 97.9399 84.54 100.085 84.54 102.73C84.54 105.375 86.6846 107.52 89.3301 107.52Z" fill="#FF9908"/>
</svg>
