<svg width="201" height="241" viewBox="0 0 201 241" fill="none" xmlns="http://www.w3.org/2000/svg">
<g opacity="0.3">
<path opacity="0.3" d="M140.53 49.71C135.062 49.7047 129.819 47.5308 125.952 43.6653C122.084 39.7997 119.908 34.5579 119.9 29.0898V0.459961H27.77C20.633 0.459961 13.7883 3.29495 8.7417 8.34155C3.6951 13.3882 0.860107 20.2329 0.860107 27.3699V189.64C0.860107 196.777 3.6951 203.622 8.7417 208.668C13.7883 213.715 20.633 216.55 27.77 216.55H138.37C145.507 216.55 152.352 213.715 157.398 208.668C162.445 203.622 165.28 196.777 165.28 189.64V49.71H140.53Z" fill="#00C650"/>
</g>
<path d="M165.28 49.71H140.53C135.062 49.7047 129.819 47.5308 125.952 43.6653C122.084 39.7997 119.908 34.5579 119.9 29.0898V0.459961L165.28 49.71Z" fill="#00C650"/>
<path d="M184.8 171.06H59.76C50.8903 171.06 43.7 178.25 43.7 187.12V224.4C43.7 233.27 50.8903 240.46 59.76 240.46H184.8C193.67 240.46 200.86 233.27 200.86 224.4V187.12C200.86 178.25 193.67 171.06 184.8 171.06Z" fill="#00C650"/>
<path d="M68.9001 213.84V221.11H61.3701V213.84H68.9001Z" fill="white"/>
<path d="M98.6699 191.04V221.11H91.3601V208.56H79.96V221.11H72.6799V191.04H79.96V202.69H91.3601V191.04H98.6699Z" fill="white"/>
<path d="M125.3 191.04V196.82H117.13V221.11H109.82V196.82H101.73V191.04H125.3Z" fill="white"/>
<path d="M162.17 191.25V221.11H154.9V202.44L148.44 221.11H142.14L135.63 202.4V221.11H128.36V191.25H137.25L145.37 212.05L153.37 191.25H162.17Z" fill="white"/>
<path d="M174.46 215.54H184.16V221.11H167.16V191.04H174.43L174.46 215.54Z" fill="white"/>
<path d="M42.5 114.64C42.4842 114.208 42.6186 113.784 42.8802 113.44C43.1835 113.05 43.5481 112.713 43.96 112.44C44.583 112.115 45.228 111.835 45.8902 111.6L47.8201 110.8L55.5401 107.55C56.6001 107.05 58.6001 106.21 61.5401 105.05L65.22 103.55L66.5301 103.08C66.6129 103.054 66.6932 103.021 66.7701 102.98C66.8325 102.965 66.8975 102.965 66.96 102.98C67.1074 102.913 67.2678 102.878 67.43 102.88C67.7381 102.864 68.0463 102.91 68.3365 103.015C68.6266 103.12 68.8932 103.281 69.1201 103.49C69.3137 103.672 69.4676 103.892 69.5725 104.137C69.6775 104.381 69.7311 104.644 69.73 104.91V107.49C69.7205 107.961 69.5747 108.42 69.3101 108.81C69.0367 109.25 68.6199 109.582 68.1302 109.75L52.3701 116.2L68.1302 122.65C68.6029 122.838 69.0121 123.157 69.3101 123.57C69.585 123.944 69.7322 124.396 69.73 124.86V127.4C69.7303 127.669 69.6764 127.935 69.5716 128.182C69.4668 128.429 69.3133 128.653 69.1201 128.84C68.8971 129.056 68.6317 129.223 68.3409 129.332C68.05 129.44 67.7399 129.487 67.43 129.47C67.269 129.47 67.1095 129.44 66.96 129.38L66.5301 129.24L65.22 128.77L61.5401 127.26L55.5401 124.77L47.8201 121.52L45.8902 120.72C45.2602 120.47 44.62 120.19 43.96 119.87C43.5492 119.68 43.197 119.383 42.9402 119.01C42.6834 118.637 42.5314 118.202 42.5 117.75V114.64Z" fill="#00C650"/>
<path d="M74.0801 132.17C73.4539 132.191 72.8419 131.981 72.3601 131.58C72.1505 131.413 71.9807 131.202 71.863 130.962C71.7454 130.721 71.6828 130.458 71.6799 130.19C71.6799 129.81 72.8101 127.19 75.0701 122.19L78.3601 114.94L79.0701 113.43L84.3901 101.62L86.27 97.5299L86.6501 96.58C86.7987 96.2361 86.9688 95.9021 87.1599 95.58C87.4262 95.1469 87.8026 94.7921 88.2505 94.5514C88.6984 94.3108 89.2018 94.1931 89.71 94.2101H92.03C92.6562 94.1897 93.2682 94.3994 93.75 94.8C93.959 94.967 94.1285 95.1783 94.2461 95.4186C94.3637 95.659 94.4264 95.9225 94.4299 96.1901C93.6294 98.5219 92.6878 100.803 91.6101 103.02L91.0901 104.15L87.0901 112.9L81.77 124.71L79.8901 128.81L79.51 129.75C79.3657 130.123 79.1918 130.484 78.99 130.83C78.7073 131.257 78.3221 131.606 77.8696 131.845C77.4171 132.084 76.912 132.207 76.4001 132.2L74.0801 132.17Z" fill="#00C650"/>
<path d="M98.7901 129.48C98.4724 129.5 98.1539 129.455 97.8546 129.346C97.5553 129.238 97.2814 129.069 97.0502 128.85C96.857 128.663 96.7033 128.44 96.5985 128.192C96.4937 127.945 96.4398 127.679 96.44 127.41V124.87C96.4355 124.409 96.5755 123.958 96.8402 123.58C97.1347 123.156 97.5541 122.835 98.0401 122.66L113.85 116.21L98.0401 109.76C97.5551 109.553 97.144 109.205 96.8602 108.76C96.5946 108.378 96.4482 107.926 96.44 107.46V104.88C96.4403 104.613 96.4966 104.348 96.6051 104.104C96.7136 103.859 96.872 103.64 97.0702 103.46C97.5419 103.04 98.1592 102.821 98.7901 102.85C98.9366 102.845 99.0815 102.88 99.2101 102.95C99.296 102.934 99.3842 102.934 99.4701 102.95L99.68 103.05C99.62 103.05 100.04 103.17 100.95 103.52L104.67 105.02C104.48 104.93 106.48 105.76 110.67 107.52C112.957 108.46 115.577 109.574 118.53 110.86C118.72 110.92 118.97 111.02 119.28 111.14L120.37 111.57C121.004 111.796 121.616 112.077 122.2 112.41C122.62 112.602 122.979 112.906 123.236 113.289C123.494 113.672 123.641 114.119 123.66 114.58V117.68C123.656 118.106 123.516 118.519 123.26 118.86C122.981 119.248 122.619 119.569 122.2 119.8C121.64 120.08 120.96 120.38 120.2 120.7L118.2 121.5L100.79 128.79C100.29 129.04 99.9902 129.2 99.8902 129.26L99.7101 129.4L98.7901 129.48Z" fill="#00C650"/>
</svg>
