<svg width="201" height="241" viewBox="0 0 201 241" fill="none" xmlns="http://www.w3.org/2000/svg">
<g opacity="0.3">
<path opacity="0.3" d="M139.96 49.88C134.491 49.8774 129.247 47.7044 125.379 43.8383C121.511 39.9721 119.335 34.7289 119.33 29.26V0.640015H27.2C23.6652 0.640014 20.1652 1.33635 16.8997 2.68933C13.6341 4.04231 10.6672 6.02538 8.16821 8.52527C5.66926 11.0252 3.68722 13.9929 2.33545 17.2589C0.983685 20.5249 0.288727 24.0253 0.290041 27.5601V189.77C0.288727 193.305 0.983685 196.805 2.33545 200.071C3.68722 203.337 5.66926 206.305 8.16821 208.805C10.6672 211.305 13.6341 213.288 16.8997 214.641C20.1652 215.994 23.6652 216.69 27.2 216.69H137.8C141.335 216.69 144.835 215.994 148.1 214.641C151.366 213.288 154.333 211.305 156.832 208.805C159.331 206.305 161.313 203.337 162.665 200.071C164.016 196.805 164.711 193.305 164.71 189.77V49.88H139.96Z" fill="#0072FF"/>
</g>
<path d="M164.71 49.88H139.96C134.491 49.8774 129.247 47.7044 125.379 43.8383C121.511 39.9721 119.335 34.7289 119.33 29.26V0.640015L164.71 49.88Z" fill="#0072FF"/>
<path d="M184.23 171.24H59.1899C50.3202 171.24 43.1299 178.43 43.1299 187.3V224.58C43.1299 233.45 50.3202 240.64 59.1899 240.64H184.23C193.1 240.64 200.29 233.45 200.29 224.58V187.3C200.29 178.43 193.1 171.24 184.23 171.24Z" fill="#0072FF"/>
<path d="M89.22 214.01V221.29H81.6899V214.01H89.22Z" fill="white"/>
<path d="M100.28 191.22V221.29H93.03V191.22H100.28Z" fill="white"/>
<path d="M125.69 217.2C124.83 218.583 123.591 219.691 122.12 220.39C120.334 221.232 118.374 221.64 116.4 221.58C113.425 221.703 110.492 220.838 108.06 219.12C106.983 218.316 106.103 217.278 105.485 216.085C104.866 214.891 104.526 213.573 104.49 212.23H112.23C112.285 213.243 112.717 214.199 113.44 214.91C114.16 215.581 115.116 215.941 116.1 215.91C116.908 215.956 117.701 215.683 118.31 215.15C118.577 214.891 118.786 214.58 118.926 214.235C119.065 213.891 119.132 213.521 119.12 213.15C119.131 212.796 119.07 212.443 118.941 212.113C118.812 211.784 118.618 211.483 118.37 211.23C117.843 210.694 117.214 210.269 116.52 209.98C115.79 209.65 114.76 209.26 113.46 208.81C111.866 208.285 110.309 207.653 108.8 206.92C107.559 206.277 106.495 205.34 105.7 204.19C104.84 202.784 104.39 201.165 104.401 199.516C104.411 197.868 104.882 196.255 105.76 194.86C106.704 193.52 108.012 192.479 109.53 191.86C111.276 191.154 113.148 190.813 115.03 190.86C117.892 190.7 120.721 191.541 123.03 193.24C124.011 194.04 124.815 195.035 125.39 196.163C125.965 197.291 126.299 198.526 126.37 199.79H118.5C118.409 198.904 118.026 198.073 117.41 197.43C117.096 197.132 116.725 196.901 116.32 196.752C115.914 196.602 115.482 196.537 115.05 196.56C114.303 196.522 113.568 196.764 112.99 197.24C112.497 197.745 112.214 198.419 112.199 199.124C112.184 199.83 112.438 200.515 112.91 201.04C113.408 201.562 114.006 201.977 114.67 202.26C115.38 202.57 116.4 202.97 117.73 203.45C119.351 203.969 120.929 204.615 122.45 205.38C123.704 206.05 124.783 207.006 125.6 208.17C126.531 209.578 126.993 211.244 126.92 212.93C126.908 214.439 126.482 215.916 125.69 217.2Z" fill="white"/>
<path d="M152.95 192.73C155.239 194.023 157.131 195.918 158.42 198.21C159.739 200.65 160.43 203.381 160.43 206.155C160.43 208.929 159.739 211.66 158.42 214.1C157.122 216.399 155.225 218.304 152.93 219.61C150.578 220.902 147.938 221.579 145.255 221.579C142.572 221.579 139.932 220.902 137.58 219.61C135.281 218.309 133.382 216.404 132.09 214.1C130.764 211.662 130.069 208.93 130.069 206.155C130.069 203.38 130.764 200.648 132.09 198.21C133.384 195.915 135.283 194.019 137.58 192.73C139.937 191.431 142.584 190.75 145.275 190.75C147.966 190.75 150.613 191.431 152.97 192.73H152.95ZM139.55 199.83C138.188 201.65 137.451 203.862 137.451 206.135C137.451 208.408 138.188 210.62 139.55 212.44C140.293 213.187 141.177 213.779 142.15 214.184C143.123 214.588 144.166 214.796 145.22 214.796C146.274 214.796 147.317 214.588 148.29 214.184C149.263 213.779 150.147 213.187 150.89 212.44C152.265 210.629 153.009 208.418 153.009 206.145C153.009 203.872 152.265 201.661 150.89 199.85C149.376 198.357 147.336 197.521 145.21 197.521C143.084 197.521 141.044 198.357 139.53 199.85L139.55 199.83Z" fill="white"/>
<path d="M78.78 146.24C71.7445 146.242 64.8663 144.158 59.0156 140.25C53.1648 136.343 48.6041 130.788 45.9103 124.289C43.2166 117.79 42.5109 110.637 43.8823 103.737C45.2536 96.8363 48.6405 90.4973 53.6147 85.5217C58.5888 80.5462 64.9267 77.1575 71.8268 75.7842C78.727 74.4109 85.8797 75.1147 92.3798 77.8066C98.88 80.4986 104.436 85.0577 108.345 90.9074C112.254 96.757 114.34 103.635 114.34 110.67C114.329 120.099 110.58 129.139 103.914 135.807C97.2473 142.475 88.2087 146.227 78.78 146.24ZM78.78 77.24C72.1736 77.24 65.7157 79.1992 60.2228 82.8696C54.73 86.5401 50.449 91.7571 47.9213 97.8607C45.3936 103.964 44.7328 110.68 46.0224 117.16C47.3119 123.639 50.4941 129.59 55.1662 134.261C59.8383 138.932 65.7906 142.112 72.2702 143.399C78.7498 144.687 85.4657 144.024 91.5685 141.495C97.6714 138.965 102.887 134.683 106.556 129.189C110.225 123.695 112.182 117.236 112.18 110.63C112.159 101.783 108.632 93.3049 102.371 87.0537C96.1105 80.8025 87.6271 77.288 78.78 77.28V77.24Z" fill="#0072FF"/>
<path d="M78.8401 76.01V104.29H78.78C77.6618 104.289 76.5632 104.583 75.594 105.141C74.6249 105.698 73.8192 106.501 73.2581 107.469C72.697 108.436 72.3999 109.534 72.3967 110.652C72.3936 111.77 72.6844 112.87 73.24 113.84L48.8701 127.91L48.3301 126.91C45.6337 121.882 44.225 116.265 44.23 110.56C44.23 110.29 44.23 110.02 44.23 109.76C44.3534 103.856 45.9963 98.084 49 93C51.9907 87.9406 56.2158 83.7225 61.28 80.74C66.3618 77.7396 72.13 76.0969 78.03 75.97L78.8401 76.01Z" fill="#0072FF"/>
<path d="M113.43 110.64C113.43 119.815 109.786 128.614 103.3 135.102C96.813 141.591 88.0148 145.237 78.8401 145.24V117.09C80.5209 117.072 82.1268 116.392 83.3098 115.197C84.4928 114.003 85.1574 112.391 85.1599 110.71C85.165 109.578 84.8645 108.465 84.29 107.49L108.8 93.33C111.704 98.3572 113.293 104.036 113.42 109.84C113.43 110.07 113.43 110.34 113.43 110.64Z" fill="#0072FF"/>
<path d="M78.78 115.04C77.9153 115.042 77.0693 114.787 76.3493 114.308C75.6294 113.829 75.0678 113.148 74.7355 112.349C74.4033 111.551 74.3151 110.672 74.4826 109.824C74.6501 108.975 75.0657 108.196 75.6765 107.583C76.2872 106.971 77.0658 106.554 77.9138 106.385C78.7617 106.215 79.6408 106.301 80.4399 106.632C81.239 106.962 81.9222 107.522 82.4028 108.241C82.8834 108.96 83.1401 109.805 83.1401 110.67C83.1401 111.827 82.6808 112.937 81.8635 113.757C81.0461 114.576 79.9372 115.037 78.78 115.04ZM78.78 108.47C78.342 108.468 77.9135 108.596 77.5485 108.838C77.1836 109.08 76.8987 109.425 76.7302 109.83C76.5617 110.234 76.517 110.679 76.602 111.109C76.687 111.538 76.8976 111.933 77.2072 112.243C77.5169 112.552 77.9116 112.763 78.3413 112.848C78.7709 112.933 79.2161 112.888 79.6203 112.72C80.0245 112.551 80.3697 112.267 80.6118 111.902C80.8538 111.537 80.9819 111.108 80.9799 110.67C80.9773 110.087 80.7447 109.529 80.3327 109.117C79.9207 108.705 79.3626 108.473 78.78 108.47Z" fill="#0072FF"/>
</svg>
