<svg width="201" height="241" viewBox="0 0 201 241" fill="none" xmlns="http://www.w3.org/2000/svg">
<g opacity="0.3">
<path opacity="0.3" d="M140.53 49.8C135.06 49.7948 129.816 47.6196 125.948 43.7518C122.081 39.8841 119.905 34.6398 119.9 29.17V0.550049H27.77C20.633 0.550049 13.7883 3.38516 8.7417 8.43176C3.6951 13.4784 0.860107 20.323 0.860107 27.46V189.64C0.860107 193.174 1.55609 196.673 2.90845 199.938C4.2608 203.203 6.24287 206.169 8.7417 208.668C11.2405 211.167 14.2071 213.149 17.4719 214.502C20.7368 215.854 24.2361 216.55 27.77 216.55H138.37C145.507 216.55 152.352 213.715 157.398 208.668C162.445 203.622 165.28 196.777 165.28 189.64V49.8H140.53Z" fill="#00C650"/>
</g>
<path d="M165.28 49.8H140.53C135.06 49.7948 129.816 47.6196 125.948 43.7518C122.081 39.8841 119.905 34.6398 119.9 29.17V0.550049L165.28 49.8Z" fill="#00C650"/>
<path d="M184.8 171.15H59.76C50.8903 171.15 43.7 178.34 43.7 187.21V224.49C43.7 233.36 50.8903 240.55 59.76 240.55H184.8C193.67 240.55 200.86 233.36 200.86 224.49V187.21C200.86 178.34 193.67 171.15 184.8 171.15Z" fill="#00C650"/>
<path d="M85.0801 213.93V221.2H77.55V213.93H85.0801Z" fill="white"/>
<path d="M107.41 191.13V211.64C107.41 214.793 106.553 217.217 104.84 218.91C103.885 219.795 102.762 220.478 101.536 220.918C100.311 221.358 99.0096 221.546 97.71 221.47C96.2867 221.545 94.8626 221.338 93.5203 220.859C92.1779 220.38 90.9442 219.639 89.8901 218.68C87.9568 216.82 86.99 214.153 86.99 210.68H94.1799C94.1799 213.487 95.2435 214.89 97.3701 214.89C99.2101 214.89 100.14 213.82 100.14 211.66V191.12L107.41 191.13Z" fill="white"/>
<path d="M119.49 210.64V221.19H112.22V191.12H124.03C127.6 191.12 130.32 192 132.19 193.78C133.137 194.708 133.877 195.825 134.361 197.059C134.845 198.293 135.063 199.616 135 200.94C135.027 202.687 134.596 204.411 133.75 205.94C132.876 207.434 131.578 208.635 130.02 209.39C128.146 210.273 126.091 210.701 124.02 210.64H119.49ZM127.57 200.94C127.57 198.313 126.11 196.98 123.19 196.94H119.49V204.76H123.19C126.11 204.8 127.57 203.53 127.57 200.95V200.94Z" fill="white"/>
<path d="M161.94 193.64C164.358 195.463 165.986 198.144 166.49 201.13H158.79C158.287 200.057 157.472 199.161 156.45 198.56C154.959 197.745 153.244 197.437 151.563 197.682C149.882 197.927 148.326 198.713 147.13 199.92C145.667 201.671 144.924 203.912 145.05 206.19C145.05 209.06 145.78 211.25 147.24 212.78C148.06 213.578 149.038 214.195 150.111 214.592C151.184 214.988 152.328 215.154 153.47 215.08C155.106 215.11 156.708 214.604 158.03 213.64C159.38 212.629 160.355 211.197 160.8 209.57H151.61V204.34H166.88V211.53C166.293 213.318 165.369 214.978 164.16 216.42C162.848 217.973 161.214 219.222 159.37 220.08C157.289 221.047 155.014 221.526 152.72 221.48C149.93 221.553 147.17 220.887 144.72 219.55C142.481 218.291 140.657 216.408 139.47 214.13C138.251 211.655 137.617 208.934 137.617 206.175C137.617 203.416 138.251 200.695 139.47 198.22C140.653 195.946 142.469 194.063 144.7 192.8C147.113 191.469 149.835 190.799 152.59 190.86C155.929 190.724 159.218 191.702 161.94 193.64Z" fill="white"/>
<path d="M105.16 146.96H61.03C56.706 146.955 52.5605 145.235 49.5029 142.177C46.4454 139.12 44.7253 134.974 44.72 130.65V86.48C44.7253 82.1568 46.4458 78.0125 49.5037 74.9565C52.5615 71.9006 56.7069 70.1827 61.03 70.1801H105.2C109.521 70.1853 113.664 71.9043 116.72 74.96C119.776 78.0157 121.495 82.1586 121.5 86.48V130.64C121.5 132.785 121.077 134.909 120.256 136.89C119.434 138.871 118.23 140.671 116.713 142.187C115.195 143.703 113.394 144.905 111.412 145.724C109.429 146.542 107.305 146.963 105.16 146.96ZM61.03 77.39C58.6191 77.3927 56.3075 78.3508 54.6018 80.0547C52.8961 81.7585 51.9352 84.0691 51.9299 86.48V130.64C51.9326 133.053 52.8924 135.366 54.5984 137.072C56.3044 138.778 58.6174 139.737 61.03 139.74H105.2C107.611 139.735 109.921 138.774 111.625 137.068C113.329 135.363 114.287 133.051 114.29 130.64V86.47C114.287 84.06 113.329 81.7494 111.625 80.0453C109.921 78.3412 107.61 77.3827 105.2 77.38L61.03 77.39Z" fill="#00C650"/>
<path d="M117.86 122.25V130.65C117.86 134.018 116.522 137.249 114.14 139.63C111.759 142.012 108.528 143.35 105.16 143.35H61.03C59.3614 143.351 57.709 143.024 56.167 142.386C54.625 141.748 53.2236 140.813 52.0432 139.634C50.8628 138.454 49.9265 137.054 49.2876 135.512C48.6487 133.971 48.3201 132.319 48.3201 130.65V116.57C55.4001 115.05 66.17 114.57 79.24 119.8L87.3401 112.07L92.8601 126.07C92.8601 126.07 94.3401 120.92 99.1201 121.65C103.9 122.38 111.64 124.97 114.95 122.76C115.828 122.248 116.86 122.067 117.86 122.25Z" fill="#00C650"/>
<path d="M102.39 95.5C105.102 95.5 107.3 93.3017 107.3 90.59C107.3 87.8782 105.102 85.6801 102.39 85.6801C99.6782 85.6801 97.48 87.8782 97.48 90.59C97.48 93.3017 99.6782 95.5 102.39 95.5Z" fill="#00C650"/>
</svg>
