<svg width="201" height="241" viewBox="0 0 201 241" fill="none" xmlns="http://www.w3.org/2000/svg">
<g opacity="0.3">
<path opacity="0.3" d="M140.38 49.8C134.912 49.7921 129.67 47.6157 125.805 43.7483C121.939 39.8808 119.765 34.6381 119.76 29.17V0.550051H27.63C24.0953 0.548737 20.5948 1.24382 17.3288 2.59558C14.0627 3.94735 11.095 5.92927 8.59512 8.42822C6.09524 10.9272 4.11216 13.8941 2.75918 17.1597C1.4062 20.4252 0.709867 23.9252 0.709867 27.46V189.64C0.69802 193.182 1.38563 196.692 2.7333 199.968C4.08098 203.244 6.06232 206.221 8.56338 208.73C11.0644 211.238 14.0361 213.229 17.308 214.586C20.5799 215.943 24.0877 216.641 27.63 216.64H138.23C145.367 216.64 152.212 213.805 157.258 208.758C162.305 203.712 165.14 196.867 165.14 189.73V49.8H140.38Z" fill="#005FAD"/>
</g>
<path d="M165.14 49.8H140.38C134.912 49.7921 129.67 47.6157 125.805 43.7483C121.939 39.8808 119.765 34.6381 119.76 29.17V0.550049L165.14 49.8Z" fill="#005FAD"/>
<path d="M184.65 171.15H59.6101C50.7404 171.15 43.55 178.34 43.55 187.21V224.49C43.55 233.36 50.7404 240.55 59.6101 240.55H184.65C193.52 240.55 200.71 233.36 200.71 224.49V187.21C200.71 178.34 193.52 171.15 184.65 171.15Z" fill="#005FAD"/>
<path d="M79.77 213.93V221.2H72.24V213.93H79.77Z" fill="white"/>
<path d="M90.8301 210.64V221.19H83.5601V191.12H95.3401C98.9101 191.12 101.63 192 103.5 193.78C104.447 194.708 105.187 195.825 105.671 197.059C106.155 198.293 106.373 199.616 106.31 200.94C106.337 202.687 105.906 204.411 105.06 205.94C104.186 207.434 102.888 208.635 101.33 209.39C99.4563 210.273 97.4006 210.701 95.3301 210.64H90.8301ZM98.9099 200.94C98.9099 198.313 97.45 196.98 94.53 196.94H90.8301V204.76H94.53C97.45 204.8 98.9099 203.53 98.9099 200.95V200.94Z" fill="white"/>
<path d="M136.59 221.2H129.32L117.16 202.74V221.2H109.88V191.13H117.16L129.32 209.76V191.13H136.59V221.2Z" fill="white"/>
<path d="M165.03 193.64C167.454 195.46 169.087 198.141 169.59 201.13H161.89C161.387 200.057 160.572 199.161 159.55 198.56C158.059 197.745 156.344 197.437 154.663 197.682C152.981 197.927 151.426 198.713 150.23 199.92C148.767 201.671 148.024 203.912 148.15 206.19C148.15 209.06 148.88 211.25 150.34 212.78C151.16 213.578 152.137 214.195 153.211 214.592C154.284 214.988 155.428 215.154 156.57 215.08C158.201 215.113 159.798 214.615 161.12 213.66C162.47 212.649 163.445 211.217 163.89 209.59H154.7V204.36H169.97V211.55C169.383 213.338 168.46 214.998 167.25 216.44C165.938 217.993 164.303 219.242 162.46 220.1C160.379 221.067 158.104 221.546 155.81 221.5C153.02 221.573 150.26 220.907 147.81 219.57C145.571 218.311 143.747 216.428 142.56 214.15C141.341 211.675 140.707 208.954 140.707 206.195C140.707 203.436 141.341 200.715 142.56 198.24C143.743 195.966 145.559 194.083 147.79 192.82C150.202 191.487 152.925 190.818 155.68 190.88C159.017 190.733 162.308 191.705 165.03 193.64Z" fill="white"/>
<path d="M55.4099 67.27H41.6599V81.02H55.4099V67.27Z" fill="#005FAD"/>
<path d="M69.1699 81.02H55.4199V94.77H69.1699V81.02Z" fill="#005FAD"/>
<path d="M82.9199 67.27H69.1699V81.02H82.9199V67.27Z" fill="#005FAD"/>
<path d="M96.6699 81.02H82.9199V94.77H96.6699V81.02Z" fill="#005FAD"/>
<path d="M110.43 67.27H96.6799V81.02H110.43V67.27Z" fill="#005FAD"/>
<path d="M124.19 81.02H110.44V94.77H124.19V81.02Z" fill="#005FAD"/>
<path d="M55.4099 94.75H41.6599V108.5H55.4099V94.75Z" fill="#005FAD"/>
<path d="M69.1699 108.5H55.4199V122.25H69.1699V108.5Z" fill="#005FAD"/>
<path d="M82.9199 94.75H69.1699V108.5H82.9199V94.75Z" fill="#005FAD"/>
<path d="M96.6699 108.5H82.9199V122.25H96.6699V108.5Z" fill="#005FAD"/>
<path d="M110.43 94.75H96.6799V108.5H110.43V94.75Z" fill="#005FAD"/>
<path d="M124.19 108.5H110.44V122.25H124.19V108.5Z" fill="#005FAD"/>
<path d="M55.4099 122.36H41.6599V136.11H55.4099V122.36Z" fill="#005FAD"/>
<path d="M69.1699 136.11H55.4199V149.86H69.1699V136.11Z" fill="#005FAD"/>
<path d="M82.9199 122.36H69.1699V136.11H82.9199V122.36Z" fill="#005FAD"/>
<path d="M96.6699 136.11H82.9199V149.86H96.6699V136.11Z" fill="#005FAD"/>
<path d="M110.43 122.36H96.6799V136.11H110.43V122.36Z" fill="#005FAD"/>
<path d="M124.19 136.11H110.44V149.86H124.19V136.11Z" fill="#005FAD"/>
</svg>
