<svg width="200" height="240" viewBox="0 0 200 240" fill="none" xmlns="http://www.w3.org/2000/svg">
<g opacity="0.3">
<path opacity="0.3" d="M139.67 49.25C134.203 49.2447 128.961 47.0705 125.095 43.2047C121.23 39.3388 119.055 34.0971 119.05 28.63V1.85821e-06H26.9202C23.3855 -0.00131167 19.8849 0.693768 16.6189 2.04553C13.3529 3.3973 10.3851 5.37925 7.88525 7.87821C5.38537 10.3772 3.4023 13.3442 2.04932 16.6097C0.696337 19.8752 -2.4406e-07 23.3753 0 26.91V189.13C-2.4406e-07 192.665 0.696337 196.165 2.04932 199.43C3.4023 202.696 5.38537 205.663 7.88525 208.162C10.3851 210.661 13.3529 212.643 16.6189 213.994C19.8849 215.346 23.3855 216.041 26.9202 216.04H137.52C144.657 216.04 151.502 213.205 156.548 208.158C161.595 203.112 164.43 196.267 164.43 189.13V49.25H139.67Z" fill="#08AD6C"/>
</g>
<path d="M164.43 49.25H139.67C134.203 49.2447 128.961 47.0705 125.095 43.2047C121.23 39.3388 119.055 34.0971 119.05 28.63V0L164.43 49.25Z" fill="#08AD6C"/>
<path d="M183.94 170.61H58.9001C50.0305 170.61 42.8401 177.8 42.8401 186.67V223.95C42.8401 232.82 50.0305 240.01 58.9001 240.01H183.94C192.81 240.01 200 232.82 200 223.95V186.67C200 177.8 192.81 170.61 183.94 170.61Z" fill="#08AD6C"/>
<path d="M71.5 213.12V220.37H64V213.12H71.5Z" fill="white"/>
<path d="M118.89 150.83H45.54C39.19 150.83 34.03 144.51 34.03 136.73V83.51C34.03 75.74 39.19 69.42 45.54 69.42H118.89C125.24 69.42 130.4 75.74 130.4 83.51V136.7C130.4 144.48 125.24 150.83 118.89 150.83ZM45.54 76.66C42.44 76.66 39.9202 79.74 39.9202 83.54V136.73C39.9202 140.53 42.44 143.62 45.54 143.62H118.89C121.99 143.62 124.52 140.53 124.52 136.73V83.51C124.52 79.71 121.99 76.63 118.89 76.63L45.54 76.66Z" fill="#08AD6C"/>
<path d="M127.46 118.77H36.97V125.98H127.46V118.77Z" fill="#08AD6C"/>
<path d="M127.46 94.04H36.97V101.25H127.46V94.04Z" fill="#08AD6C"/>
<path d="M104.29 73.02H97.0801V147.19H104.29V73.02Z" fill="#08AD6C"/>
<path d="M67.3501 73.02H60.1401V147.19H67.3501V73.02Z" fill="#08AD6C"/>
<path d="M94.4099 221.07L88.0701 211.71L82.6301 221.07H74.29L83.9099 205.58L74 191H82.6301L88.8 200.05L94.1101 191H102.41L92.9199 206.14L103.04 221.07H94.4099Z" fill="white"/>
<path d="M171.41 221.07L165.07 211.71L159.63 221.07H151.29L160.91 205.58L151 191H159.63L165.8 200.05L171.11 191H179.41L169.92 206.14L180.04 221.07H171.41Z" fill="white"/>
<path d="M113.3 215.5H123V221.07H106V191H113.27L113.3 215.5Z" fill="white"/>
<path d="M147.271 217.449C146.411 218.833 145.172 219.94 143.701 220.639C141.913 221.478 139.954 221.885 137.981 221.829C135.006 221.949 132.075 221.085 129.641 219.369C128.568 218.559 127.691 217.519 127.073 216.324C126.455 215.13 126.113 213.813 126.071 212.469H133.821C133.881 213.481 134.312 214.435 135.031 215.149C135.387 215.483 135.805 215.743 136.261 215.914C136.718 216.086 137.204 216.166 137.691 216.149C138.499 216.198 139.294 215.925 139.901 215.389C140.42 214.857 140.716 214.147 140.729 213.403C140.742 212.66 140.471 211.94 139.971 211.389C139.44 210.858 138.812 210.434 138.121 210.139C137.381 209.813 136.361 209.423 135.061 208.969C133.468 208.439 131.911 207.804 130.401 207.069C129.158 206.431 128.09 205.497 127.291 204.349C126.435 202.941 125.988 201.322 126 199.675C126.013 198.027 126.484 196.415 127.361 195.019C128.301 193.68 129.606 192.639 131.121 192.019C132.869 191.309 134.745 190.968 136.631 191.019C139.493 190.859 142.322 191.7 144.631 193.399C145.614 194.198 146.418 195.193 146.994 196.321C147.569 197.449 147.902 198.685 147.971 199.949H140.101C140.013 199.065 139.633 198.234 139.021 197.589C138.707 197.292 138.336 197.062 137.93 196.912C137.525 196.763 137.093 196.697 136.661 196.719C135.914 196.681 135.179 196.924 134.601 197.399C134.327 197.652 134.114 197.963 133.977 198.309C133.84 198.655 133.783 199.028 133.811 199.399C133.802 199.732 133.86 200.064 133.98 200.375C134.1 200.685 134.28 200.969 134.511 201.209C135.012 201.729 135.615 202.141 136.281 202.419C136.991 202.739 138.011 203.129 139.341 203.619C140.962 204.141 142.54 204.786 144.061 205.549C145.315 206.22 146.394 207.175 147.211 208.339C148.146 209.745 148.609 211.413 148.531 213.1C148.524 214.638 148.088 216.145 147.271 217.449V217.449Z" fill="white"/>
</svg>
